<?xml version="1.0" encoding="utf-8"?>
<!-- Generator: Adobe Illustrator 12.0.0, SVG Export Plug-In . SVG Version: 6.00 Build 51448)  -->
<!DOCTYPE svg PUBLIC "-//W3C//DTD SVG 1.1//EN" "http://www.w3.org/Graphics/SVG/1.1/DTD/svg11.dtd" [
	<!ENTITY ns_svg "http://www.w3.org/2000/svg">
	<!ENTITY ns_xlink "http://www.w3.org/1999/xlink">
]>
<svg  version="1.1" id="Layer_1" xmlns="&ns_svg;" xmlns:xlink="&ns_xlink;" width="175.604" height="178.229"
	 viewBox="0 0 175.604 178.229" overflow="visible" enable-background="new 0 0 175.604 178.229" xml:space="preserve">
<g>
	<g>
		<g>
			
			<linearGradient id="balk_3_" gradientUnits="userSpaceOnUse" x1="125.5657" y1="129.1487" x2="105.6486" y2="109.2316" gradientTransform="matrix(1 0 0 -1 0 177.229)">
				<stop  offset="0" style="stop-color:#BF0000"/>
				<stop  offset="1" style="stop-color:#8F0000"/>
			</linearGradient>
			<a xlink:href="https://github.com/UseCue/InvoiceLion">
			<polygon id="balk" fill="url(#balk_3_)" points="175.622,137.972 35.676,-1.977 55.591,-21.892 195.539,118.055" style="-webkit-filter: drop-shadow( 3px 3px 2px rgba(0, 0, 0, .7)); filter: drop-shadow( 3px 3px 2px rgba(0, 0, 0, .7));"/>
			</a>
			<g id="letters">
				<path fill="#FFFFFF" d="M82.988,18.34c0.517-0.516,0.858-0.888,1.026-1.115l3.66,3.66l-1.271,1.272
					c-0.145-0.19-0.414-0.482-0.811-0.878l-1.38-1.38l-1.779,1.778l1.152,1.152c0.35,0.349,0.619,0.597,0.809,0.742l-1.25,1.25
					c-0.129-0.176-0.342-0.411-0.638-0.707l-1.255-1.255l-2.387,2.387c-0.449,0.449-0.773,0.803-0.973,1.061l-1.48-1.481
					c0.25-0.19,0.623-0.532,1.117-1.026L82.988,18.34z"/>
				<path fill="#FFFFFF" d="M82.625,31.194c-0.73-0.73-1.024-1.532-0.88-2.407c0.137-0.759,0.588-1.522,1.354-2.29
					c1.716-1.716,3.278-1.871,4.686-0.463c1.392,1.392,1.229,2.945-0.487,4.662c-0.759,0.759-1.519,1.207-2.278,1.344
					C84.145,32.198,83.347,31.915,82.625,31.194z M86.657,27.138c-0.35-0.349-0.747-0.413-1.195-0.191
					c-0.258,0.122-0.611,0.406-1.059,0.854c-0.448,0.448-0.733,0.801-0.855,1.061c-0.22,0.447-0.157,0.846,0.192,1.193
					c0.349,0.349,0.742,0.416,1.183,0.204c0.258-0.122,0.615-0.411,1.071-0.866c0.447-0.447,0.732-0.801,0.854-1.06
					C87.069,27.884,87.006,27.488,86.657,27.138z"/>
				<path fill="#FFFFFF" d="M85.557,33.971c0.174-0.13,0.444-0.376,0.81-0.741l3.544-3.544c0.356-0.356,0.593-0.614,0.708-0.773
					l1.248,1.249l-0.345,0.341c0.492-0.038,0.898,0.102,1.217,0.42c0.136,0.136,0.253,0.313,0.354,0.531l-1.29,1.29
					c-0.059-0.335-0.167-0.583-0.327-0.741c-0.212-0.212-0.553-0.333-1.022-0.362l-2.771,2.771c-0.388,0.388-0.658,0.68-0.811,0.876
					L85.557,33.971z"/>
				<path fill="#FFFFFF" d="M88.84,37.253c0.174-0.13,0.444-0.376,0.809-0.741l6.086-6.086c0.357-0.356,0.594-0.615,0.708-0.773
					l1.293,1.293c-0.167,0.122-0.417,0.35-0.752,0.684l-3.202,3.202l1.801-0.249c0.258-0.03,0.475-0.08,0.648-0.148l1.473,1.471
					l-3.488,0.432l-1.469,4.822l-1.334-1.334c0.083-0.146,0.188-0.426,0.318-0.845l0.957-3.055l-1.744,1.744
					c-0.388,0.388-0.657,0.68-0.81,0.876L88.84,37.253z"/>
				<path fill="#FFFFFF" d="M103.463,42.625c0.692,0.069,1.301,0.365,1.825,0.89c0.594,0.595,0.776,1.31,0.549,2.146
					c-0.196,0.684-0.637,1.368-1.32,2.052l-1.562,1.561c-0.518,0.518-0.853,0.881-1.004,1.093l-1.359-1.359
					c0.28-0.207,0.656-0.545,1.128-1.017l1.54-1.54c0.836-0.836,1.027-1.482,0.573-1.937c-0.311-0.31-0.602-0.479-0.874-0.51
					c-0.252,0.388-0.575,0.78-0.97,1.175l-1.563,1.563c-0.518,0.517-0.853,0.881-1.005,1.093l-1.37-1.37
					c0.28-0.207,0.656-0.545,1.127-1.017l1.551-1.529c0.479-0.479,0.765-0.851,0.856-1.117c0.092-0.266,0.021-0.516-0.214-0.75
					c-0.228-0.227-0.549-0.343-0.966-0.35l-2.841,2.84c-0.129,0.129-0.271,0.281-0.423,0.456c-0.151,0.174-0.24,0.272-0.263,0.296
					l-1.326-1.326c0.152-0.105,0.402-0.335,0.752-0.684l3.555-3.557c0.411-0.409,0.666-0.687,0.766-0.831l1.249,1.271l-0.371,0.357
					c0.6,0.069,1.048,0.253,1.344,0.549C103.295,41.522,103.501,42.04,103.463,42.625z"/>
				<path fill="#FFFFFF" d="M108.686,52.813l-2.529-2.529c-0.668,0.79-0.673,1.516-0.012,2.177c0.434,0.433,0.923,0.702,1.472,0.808
					l-1.22,1.219c-0.631-0.282-1.125-0.602-1.481-0.958c-0.753-0.753-1.081-1.591-0.982-2.51c0.083-0.874,0.526-1.713,1.332-2.518
					c0.684-0.683,1.424-1.096,2.221-1.24c0.883-0.15,1.642,0.092,2.279,0.731c0.624,0.624,0.892,1.314,0.8,2.075
					c-0.091,0.714-0.471,1.404-1.139,2.072C109.168,52.398,108.921,52.623,108.686,52.813z M108.753,49.079
					c-0.441-0.441-0.964-0.391-1.569,0.155l1.403,1.402C109.146,50.047,109.201,49.529,108.753,49.079z"/>
				<path fill="#FFFFFF" d="M111.427,59.995c-0.729-0.73-1.022-1.532-0.88-2.407c0.137-0.759,0.588-1.522,1.354-2.29
					c1.718-1.716,3.278-1.871,4.687-0.463c1.392,1.392,1.229,2.946-0.486,4.662c-0.76,0.759-1.52,1.207-2.278,1.344
					C112.948,61,112.149,60.718,111.427,59.995z M115.459,55.941c-0.35-0.35-0.746-0.412-1.194-0.192
					c-0.259,0.122-0.61,0.407-1.06,0.854c-0.449,0.448-0.733,0.802-0.854,1.06c-0.221,0.448-0.157,0.846,0.191,1.195
					c0.35,0.349,0.743,0.415,1.184,0.203c0.259-0.122,0.615-0.41,1.07-0.866c0.448-0.448,0.733-0.802,0.854-1.06
					C115.871,56.686,115.808,56.289,115.459,55.941z"/>
				<path fill="#FFFFFF" d="M121.826,60.032c0.624,0.607,0.833,1.349,0.628,2.222c-0.175,0.737-0.601,1.443-1.275,2.12l-1.562,1.562
					c-0.517,0.517-0.852,0.881-1.004,1.093l-1.37-1.37c0.196-0.152,0.568-0.495,1.115-1.028l1.552-1.527
					c0.866-0.852,1.022-1.555,0.471-2.106c-0.25-0.25-0.633-0.382-1.149-0.396l-2.805,2.806c-0.13,0.13-0.271,0.28-0.423,0.457
					c-0.152,0.174-0.24,0.271-0.263,0.295l-1.326-1.325c0.15-0.107,0.4-0.335,0.751-0.686l3.499-3.5
					c0.439-0.439,0.711-0.732,0.811-0.876l1.261,1.261l-0.412,0.409C120.968,59.476,121.47,59.674,121.826,60.032z"/>
				<path fill="#FFFFFF" d="M126.559,73.696c-0.28,0.082-0.627,0.061-1.037-0.063c-0.501-0.152-0.965-0.44-1.39-0.866
					c-1.886-1.886-1.509-4.146,1.13-6.783c1.254-1.255,2.479-1.946,3.671-2.075c1.194-0.129,2.309,0.322,3.343,1.357
					c0.594,0.594,0.916,1.296,0.97,2.109l-1.3,1.299c-0.065-0.908-0.367-1.632-0.907-2.172c-1.119-1.119-2.565-0.791-4.34,0.984
					c-1.799,1.797-2.244,3.147-1.34,4.054c0.737,0.737,1.563,0.65,2.475-0.262c0.099-0.084,0.388-0.389,0.867-0.911l1.393,1.392
					c-0.355,0.298-0.732,0.645-1.127,1.039l-1.322,1.321c-0.212,0.213-0.401,0.416-0.568,0.614
					c-0.168,0.196-0.286,0.329-0.354,0.397c-0.067-0.038-0.147-0.118-0.239-0.239L126.559,73.696z"/>
				<path fill="#FFFFFF" d="M127.679,76.093c0.167-0.138,0.434-0.388,0.797-0.753l3.545-3.545c0.357-0.356,0.598-0.611,0.72-0.763
					l1.28,1.281c-0.157,0.13-0.404,0.361-0.739,0.695l-3.498,3.499c-0.389,0.388-0.661,0.677-0.821,0.865L127.679,76.093z
					 M134.274,70.801c-0.219-0.22-0.321-0.49-0.312-0.813c0.013-0.322,0.133-0.599,0.361-0.826c0.235-0.236,0.516-0.359,0.838-0.373
					c0.323-0.012,0.595,0.092,0.813,0.313c0.212,0.211,0.313,0.479,0.301,0.804c-0.014,0.321-0.137,0.602-0.372,0.838
					c-0.229,0.229-0.505,0.348-0.826,0.36C134.754,71.113,134.488,71.012,134.274,70.801z"/>
				<path fill="#FFFFFF" d="M136.453,74.746l0.982,0.983l-1.104,1.104c-0.037-0.037-0.104-0.111-0.198-0.221
					s-0.186-0.209-0.276-0.301l-0.485-0.484l-2.12,2.12c-0.509,0.51-0.597,0.931-0.264,1.265c0.235,0.235,0.513,0.382,0.834,0.441
					l-1.141,1.14c-0.434-0.13-0.848-0.393-1.243-0.788c-0.557-0.556-0.742-1.138-0.562-1.746c0.137-0.455,0.523-1.003,1.162-1.641
					l2.039-2.039l0.011,0.011l0.023-0.021l-0.162-0.184c-0.101-0.1-0.241-0.219-0.426-0.356l1.105-1.105l0.563,0.563l0.446-0.446
					c0.214-0.214,0.374-0.396,0.482-0.549l1.327,1.327c-0.169,0.122-0.345,0.273-0.527,0.458L136.453,74.746z"/>
				<path fill="#FFFFFF" d="M142.807,81.917l0.376,0.377l-1.248,1.248l-0.377-0.376l-2.604,2.605
					c-0.357,0.356-0.608,0.638-0.753,0.842l-1.491-1.492c0.226-0.168,0.529-0.441,0.909-0.82l2.538-2.538l-2.077-2.077l-2.527,2.526
					c-0.409,0.41-0.688,0.717-0.832,0.921l-1.479-1.479c0.212-0.153,0.491-0.404,0.842-0.754l6.006-6.007
					c0.35-0.35,0.601-0.631,0.754-0.842l1.48,1.48c-0.221,0.16-0.5,0.412-0.843,0.753l-2.151,2.152l2.077,2.076l1.992-1.993
					c0.463-0.463,0.768-0.797,0.912-1.001l1.492,1.492c-0.197,0.139-0.443,0.354-0.739,0.65L142.807,81.917z"/>
				<path fill="#FFFFFF" d="M141.046,89.549c-0.599-0.599-0.775-1.309-0.532-2.128c0.206-0.66,0.658-1.34,1.356-2.039l1.562-1.561
					c0.518-0.518,0.853-0.881,1.004-1.094l1.37,1.37c-0.188,0.146-0.562,0.488-1.116,1.027l-1.551,1.529
					c-0.434,0.434-0.696,0.794-0.788,1.082c-0.123,0.349-0.033,0.674,0.269,0.975c0.212,0.212,0.573,0.323,1.089,0.336l2.805-2.806
					c0.13-0.129,0.271-0.285,0.423-0.467c0.153-0.183,0.236-0.28,0.252-0.297l1.326,1.326c-0.144,0.114-0.391,0.348-0.74,0.696
					l-3.486,3.487c-0.449,0.447-0.727,0.739-0.833,0.877l-1.249-1.249l0.412-0.408C141.964,90.163,141.44,89.943,141.046,89.549z"/>
				<path fill="#FFFFFF" d="M146.694,95.174c-0.411-0.411-0.606-0.902-0.586-1.472l-0.409,0.41l-1.204-1.204
					c0.15-0.107,0.4-0.336,0.751-0.687l6.028-6.027c0.447-0.448,0.723-0.744,0.821-0.889l1.293,1.293
					c-0.152,0.121-0.444,0.399-0.877,0.832l-1.976,1.99c0.568,0.131,1.021,0.363,1.355,0.697c0.603,0.602,0.809,1.339,0.618,2.213
					c-0.175,0.752-0.592,1.46-1.253,2.12c-0.676,0.676-1.417,1.111-2.223,1.309C148.084,95.979,147.304,95.784,146.694,95.174z
					 M150.455,91.069c-0.252-0.252-0.642-0.391-1.167-0.413l-1.978,1.976c0.01,0.48,0.131,0.839,0.367,1.075
					c0.299,0.299,0.688,0.358,1.167,0.185c0.381-0.136,0.75-0.384,1.108-0.741C150.814,92.288,150.981,91.595,150.455,91.069z"/>
			</g>
			<g opacity="0.5">
				<line fill="none" stroke="#FFFFFF" stroke-dasharray="3 1.5" x1="30.705" y1="-9.861" x2="185.08" y2="144.514"/>
				<line fill="none" stroke="#FFFFFF" stroke-dasharray="3 1.5" x1="46.58" y1="-27.986" x2="200.955" y2="126.389"/>
			</g>
		</g>
	</g>
</g>
</svg>