<?xml version="1.0" encoding="utf-8"?>
<!-- Generator: Adobe Illustrator 12.0.0, SVG Export Plug-In . SVG Version: 6.00 Build 51448)  -->
<!DOCTYPE svg PUBLIC "-//W3C//DTD SVG 1.1//EN" "http://www.w3.org/Graphics/SVG/1.1/DTD/svg11.dtd" [
	<!ENTITY ns_svg "http://www.w3.org/2000/svg">
	<!ENTITY ns_xlink "http://www.w3.org/1999/xlink">
]>
<svg  version="1.1" id="Layer_1" xmlns="&ns_svg;" xmlns:xlink="&ns_xlink;" width="301.337" height="43.598"
	 viewBox="0 0 301.337 43.598" overflow="visible" enable-background="new 0 0 301.337 43.598" xml:space="preserve">
<path fill="#6558A5" d="M43.598,40.401c0,1.766-1.431,3.197-3.197,3.197H3.197C1.431,43.598,0,42.167,0,40.401V3.197
	C0,1.431,1.431,0,3.197,0h37.204c1.766,0,3.197,1.431,3.197,3.197V40.401z"/>
<g>
	<path fill="#FFFFFF" d="M57.633,6.263h14.005v5.451h-3.546v19.5h3.546v5.451H57.633v-5.451h3.59v-19.5h-3.59V6.263z"/>
	<path fill="#FFFFFF" d="M82.23,17.342c1.861-2.511,4.269-3.767,7.224-3.767c2.304,0,4.202,0.621,5.694,1.861
		c1.492,1.241,2.238,3.043,2.238,5.407v15.821h-6.47V22.262c0-1.152-0.333-2.105-0.998-2.858s-1.514-1.13-2.548-1.13
		c-1.152,0-2.143,0.436-2.97,1.308s-1.241,1.928-1.241,3.168v13.916H76.69V14.018h4.831L82.23,17.342z"/>
	<path fill="#FFFFFF" d="M114.626,36.665h-7.313l-7.933-22.646h6.869l4.919,15.157h0.222l4.919-15.157h6.293L114.626,36.665z"/>
	<path fill="#FFFFFF" d="M145.095,31.923c-0.96,1.685-2.282,2.97-3.966,3.855c-1.685,0.886-3.575,1.329-5.673,1.329h-0.709
		c-2.098,0-3.989-0.443-5.673-1.329s-3.006-2.171-3.966-3.855c-0.96-1.685-1.44-3.663-1.44-5.938V24.7
		c0-2.275,0.48-4.255,1.44-5.939c0.96-1.684,2.282-2.969,3.966-3.856c1.684-0.886,3.575-1.33,5.673-1.33h0.709
		c2.098,0,3.988,0.443,5.673,1.33c1.684,0.887,3.006,2.172,3.966,3.856s1.44,3.664,1.44,5.939v1.285
		C146.535,28.26,146.055,30.239,145.095,31.923z M138.624,19.425c-0.901-0.945-2.076-1.418-3.523-1.418
		c-1.448,0-2.622,0.473-3.523,1.418s-1.352,2.319-1.352,4.122v3.59c0,1.802,0.45,3.176,1.352,4.121s2.076,1.418,3.523,1.418
		c1.447,0,2.622-0.473,3.523-1.418s1.352-2.319,1.352-4.121v-3.59C139.976,21.745,139.525,20.371,138.624,19.425z"/>
	<path fill="#FFFFFF" d="M150.213,4.756h6.56v5.097h-6.56V4.756z M150.257,36.665V14.018h6.471v22.646H150.257z"/>
	<path fill="#FFFFFF" d="M168.163,31.192c0.769,0.99,1.802,1.484,3.103,1.484c1.359,0,2.43-0.421,3.213-1.263
		s1.174-2.091,1.174-3.745h6.116c0,2.098-0.45,3.855-1.352,5.273s-2.091,2.467-3.567,3.146c-1.479,0.68-3.103,1.02-4.875,1.02
		h-0.709c-3.31,0-5.939-0.982-7.889-2.947c-1.951-1.965-2.926-4.689-2.926-8.176V24.7c0-2.305,0.466-4.292,1.396-5.961
		c0.931-1.669,2.209-2.947,3.834-3.833c1.625-0.886,3.486-1.33,5.584-1.33h0.709c1.743,0,3.36,0.377,4.853,1.13
		s2.688,1.847,3.59,3.279c0.901,1.433,1.352,3.125,1.352,5.074h-6.426c0-1.536-0.34-2.762-1.02-3.678s-1.685-1.374-3.014-1.374
		s-2.378,0.525-3.146,1.574s-1.152,2.371-1.152,3.966v3.944C167.01,28.969,167.394,30.202,168.163,31.192z"/>
	<path fill="#FFFFFF" d="M205.079,33.186c-0.945,1.345-2.194,2.334-3.745,2.97c-1.551,0.635-3.242,0.952-5.074,0.952h-0.709
		c-2.098,0-3.988-0.443-5.673-1.329s-3.007-2.164-3.966-3.833c-0.961-1.67-1.441-3.656-1.441-5.961V24.7
		c0-2.275,0.488-4.255,1.463-5.939s2.297-2.969,3.967-3.856c1.669-0.886,3.553-1.33,5.65-1.33h0.709c1.832,0,3.531,0.377,5.097,1.13
		s2.821,1.847,3.767,3.279c0.945,1.433,1.418,3.125,1.418,5.074v3.368H191.03v1.063c0,1.479,0.436,2.711,1.308,3.701
		c0.871,0.99,2.061,1.484,3.567,1.484c1.358,0,2.43-0.377,3.213-1.13s1.175-1.868,1.175-3.347h6.205
		C206.498,30.18,206.024,31.842,205.079,33.186z M192.425,19.381c-0.813,0.916-1.277,2.083-1.396,3.501h8.952
		c0-1.507-0.348-2.696-1.041-3.567c-0.695-0.872-1.811-1.308-3.346-1.308C194.294,18.007,193.238,18.465,192.425,19.381z"/>
	<path fill="#FFFFFF" d="M210.531,36.665V6.263h6.869v24.73h12.498l0.753,5.672H210.531z"/>
	<path fill="#FFFFFF" d="M232.733,4.756h6.56v5.097h-6.56V4.756z M232.777,36.665V14.018h6.471v22.646H232.777z"/>
	<path fill="#FFFFFF" d="M264.398,31.923c-0.959,1.685-2.281,2.97-3.966,3.855s-3.575,1.329-5.673,1.329h-0.709
		c-2.098,0-3.988-0.443-5.673-1.329s-3.007-2.171-3.966-3.855c-0.961-1.685-1.441-3.663-1.441-5.938V24.7
		c0-2.275,0.48-4.255,1.441-5.939c0.959-1.684,2.281-2.969,3.966-3.856c1.685-0.886,3.575-1.33,5.673-1.33h0.709
		c2.098,0,3.988,0.443,5.673,1.33c1.685,0.887,3.007,2.172,3.966,3.856c0.961,1.684,1.441,3.664,1.441,5.939v1.285
		C265.839,28.26,265.359,30.239,264.398,31.923z M257.927,19.425c-0.9-0.945-2.075-1.418-3.522-1.418
		c-1.448,0-2.622,0.473-3.523,1.418s-1.352,2.319-1.352,4.122v3.59c0,1.802,0.45,3.176,1.352,4.121s2.075,1.418,3.523,1.418
		c1.447,0,2.622-0.473,3.522-1.418c0.902-0.945,1.353-2.319,1.353-4.121v-3.59C259.28,21.745,258.83,20.371,257.927,19.425z"/>
	<path fill="#FFFFFF" d="M275.101,17.342c1.861-2.511,4.27-3.767,7.225-3.767c2.304,0,4.201,0.621,5.693,1.861
		c1.492,1.241,2.238,3.043,2.238,5.407v15.821h-6.47V22.262c0-1.152-0.333-2.105-0.997-2.858c-0.666-0.753-1.515-1.13-2.549-1.13
		c-1.152,0-2.143,0.436-2.969,1.308c-0.828,0.872-1.241,1.928-1.241,3.168v13.916h-6.471V14.018h4.831L275.101,17.342z"/>
	<path fill="#FFFFFF" d="M294.867,30.151h6.471v6.514h-6.471V30.151z"/>
</g>
<text transform="matrix(1 0 0 1 10.1709 30.1118)" fill="#FFFFFF" font-family="'Chivo-Bold'" font-size="26.0737" letter-spacing="-1">IL</text>
</svg>
