<?xml version="1.0" encoding="utf-8"?>
<!-- Generator: Adobe Illustrator 12.0.0, SVG Export Plug-In . SVG Version: 6.00 Build 51448)  -->
<!DOCTYPE svg PUBLIC "-//W3C//DTD SVG 1.1//EN" "http://www.w3.org/Graphics/SVG/1.1/DTD/svg11.dtd" [
	<!ENTITY ns_svg "http://www.w3.org/2000/svg">
	<!ENTITY ns_xlink "http://www.w3.org/1999/xlink">
]>
<svg  version="1.1" id="Layer_1" xmlns="&ns_svg;" xmlns:xlink="&ns_xlink;" width="345.55" height="81.215"
	 viewBox="0 0 345.55 81.215" overflow="visible" enable-background="new 0 0 345.55 81.215" xml:space="preserve">
<g>
	<path fill="#FFFFFF" d="M101.846,24.065h14.005v5.451h-3.546v19.5h3.546v5.451h-14.005v-5.451h3.59v-19.5h-3.59V24.065z"/>
	<path fill="#FFFFFF" d="M126.443,35.145c1.861-2.511,4.269-3.768,7.224-3.768c2.304,0,4.202,0.621,5.694,1.861
		c1.492,1.241,2.238,3.043,2.238,5.407v15.821h-6.47V40.064c0-1.152-0.333-2.105-0.998-2.858s-1.514-1.13-2.548-1.13
		c-1.152,0-2.143,0.437-2.97,1.309s-1.241,1.928-1.241,3.168v13.916h-6.471V31.82h4.831L126.443,35.145z"/>
	<path fill="#FFFFFF" d="M158.839,54.468h-7.313l-7.932-22.647h6.869l4.919,15.157h0.222l4.919-15.157h6.293L158.839,54.468z"/>
	<path fill="#FFFFFF" d="M189.307,49.726c-0.96,1.685-2.282,2.97-3.966,3.854c-1.685,0.887-3.575,1.329-5.673,1.329h-0.709
		c-2.098,0-3.989-0.442-5.673-1.329c-1.684-0.886-3.006-2.171-3.966-3.854c-0.96-1.686-1.44-3.663-1.44-5.938v-1.285
		c0-2.274,0.48-4.255,1.44-5.938c0.96-1.685,2.282-2.969,3.966-3.856c1.684-0.886,3.575-1.33,5.673-1.33h0.709
		c2.098,0,3.988,0.443,5.673,1.33c1.684,0.888,3.006,2.172,3.966,3.856c0.96,1.684,1.44,3.664,1.44,5.938v1.285
		C190.748,46.063,190.267,48.041,189.307,49.726z M182.837,37.228c-0.901-0.945-2.076-1.418-3.523-1.418
		c-1.448,0-2.622,0.473-3.523,1.418c-0.901,0.945-1.352,2.318-1.352,4.122v3.59c0,1.802,0.45,3.176,1.352,4.121
		c0.902,0.945,2.076,1.418,3.523,1.418c1.447,0,2.622-0.473,3.523-1.418c0.901-0.945,1.352-2.319,1.352-4.121v-3.59
		C184.189,39.548,183.738,38.174,182.837,37.228z"/>
	<path fill="#FFFFFF" d="M194.426,22.559h6.56v5.097h-6.56V22.559z M194.47,54.468V31.82h6.471v22.646L194.47,54.468L194.47,54.468z
		"/>
	<path fill="#FFFFFF" d="M212.375,48.994c0.769,0.99,1.802,1.484,3.103,1.484c1.359,0,2.43-0.421,3.213-1.263
		c0.783-0.843,1.174-2.092,1.174-3.745h6.116c0,2.098-0.45,3.854-1.352,5.272c-0.903,1.418-2.092,2.467-3.568,3.146
		c-1.479,0.68-3.103,1.02-4.875,1.02h-0.709c-3.31,0-5.939-0.981-7.889-2.947c-1.951-1.965-2.926-4.688-2.926-8.176v-1.285
		c0-2.305,0.466-4.292,1.396-5.961c0.931-1.669,2.209-2.946,3.834-3.833c1.625-0.886,3.486-1.33,5.584-1.33h0.709
		c1.743,0,3.36,0.377,4.853,1.131c1.493,0.753,2.688,1.847,3.591,3.278c0.9,1.434,1.352,3.125,1.352,5.074h-6.426
		c0-1.536-0.34-2.762-1.02-3.678s-1.685-1.374-3.014-1.374c-1.329,0-2.378,0.524-3.146,1.574c-0.768,1.049-1.152,2.37-1.152,3.966
		v3.943C211.223,46.771,211.607,48.004,212.375,48.994z"/>
	<path fill="#FFFFFF" d="M249.291,50.988c-0.944,1.345-2.194,2.334-3.745,2.97s-3.242,0.952-5.074,0.952h-0.709
		c-2.098,0-3.987-0.442-5.672-1.329c-1.686-0.886-3.008-2.164-3.967-3.833c-0.961-1.67-1.441-3.655-1.441-5.961v-1.285
		c0-2.274,0.488-4.255,1.463-5.938c0.976-1.685,2.298-2.969,3.968-3.856c1.669-0.886,3.553-1.33,5.649-1.33h0.709
		c1.832,0,3.531,0.377,5.098,1.131c1.566,0.753,2.82,1.847,3.768,3.278c0.944,1.434,1.418,3.125,1.418,5.074v3.368h-15.512v1.063
		c0,1.479,0.436,2.711,1.309,3.701c0.871,0.99,2.061,1.484,3.566,1.484c1.357,0,2.43-0.377,3.213-1.13s1.176-1.868,1.176-3.348
		h6.205C250.71,47.982,250.237,49.645,249.291,50.988z M236.638,37.184c-0.813,0.916-1.276,2.083-1.396,3.501h8.952
		c0-1.507-0.348-2.696-1.041-3.567c-0.695-0.872-1.811-1.308-3.346-1.308C238.507,35.81,237.45,36.268,236.638,37.184z"/>
	<path fill="#FFFFFF" d="M254.743,54.468V24.065h6.869v24.729h12.498l0.753,5.673H254.743z"/>
	<path fill="#FFFFFF" d="M276.946,22.559h6.561v5.097h-6.561V22.559z M276.99,54.468V31.82h6.472v22.646L276.99,54.468
		L276.99,54.468z"/>
	<path fill="#FFFFFF" d="M308.611,49.726c-0.959,1.685-2.281,2.97-3.966,3.854c-1.686,0.886-3.575,1.329-5.674,1.329h-0.709
		c-2.098,0-3.987-0.442-5.672-1.329c-1.686-0.886-3.008-2.171-3.967-3.854c-0.961-1.686-1.441-3.663-1.441-5.938v-1.285
		c0-2.274,0.48-4.255,1.441-5.938c0.959-1.685,2.281-2.969,3.967-3.856c1.685-0.886,3.574-1.33,5.672-1.33h0.709
		c2.099,0,3.988,0.443,5.674,1.33c1.685,0.888,3.007,2.172,3.966,3.856c0.961,1.684,1.44,3.664,1.44,5.938v1.285
		C310.052,46.063,309.572,48.041,308.611,49.726z M302.14,37.228c-0.899-0.945-2.074-1.418-3.521-1.418s-2.622,0.473-3.523,1.418
		c-0.9,0.945-1.352,2.318-1.352,4.122v3.59c0,1.802,0.45,3.176,1.352,4.121c0.902,0.945,2.076,1.418,3.523,1.418
		s2.622-0.473,3.521-1.418c0.902-0.945,1.354-2.319,1.354-4.121v-3.59C303.492,39.548,303.042,38.174,302.14,37.228z"/>
	<path fill="#FFFFFF" d="M319.313,35.145c1.861-2.511,4.271-3.768,7.226-3.768c2.304,0,4.201,0.621,5.693,1.861
		c1.491,1.241,2.237,3.043,2.237,5.407v15.821H328V40.064c0-1.152-0.333-2.105-0.997-2.858c-0.666-0.753-1.515-1.13-2.549-1.13
		c-1.152,0-2.143,0.437-2.969,1.309c-0.828,0.872-1.241,1.928-1.241,3.168v13.916h-6.471V31.82h4.831L319.313,35.145z"/>
	<path fill="#FFFFFF" d="M339.079,47.953h6.471v6.515h-6.471V47.953z"/>
</g>
<g>
	<g>
		<g>
			<path fill="#FFFFFF" d="M49.617,0H23.354L0,16.827l3.436,45.526l33.115,18.861l32.984-18.862l3.436-45.525L49.617,0z
				 M67.066,60.792L36.548,78.246L5.904,60.792L2.68,18.074L24.187,2.579h24.597L70.29,18.074L67.066,60.792z"/>
		</g>
	</g>
	<polygon fill="#FFFFFF" points="36.504,62.591 44.129,61.216 45.581,56.926 36.504,54.076 27.471,56.926 28.923,61.216 	"/>
	<polygon fill="#FFFFFF" points="62.47,22.537 65.797,13.37 56.08,14.571 	"/>
	<polygon fill="#FFFFFF" points="10.224,22.537 6.897,13.37 16.615,14.571 	"/>
	<polygon fill="#FFFFFF" points="39.425,26.002 51.156,26.002 48.457,27.463 48.457,29.994 42.84,29.994 45.042,42.266 
		38.183,46.828 38.183,51.504 44.993,53.533 47.259,52.4 49.638,44.979 56.883,35.277 56.883,25.928 47.879,15.385 25.145,15.402 
		16.2,25.897 16.2,35.315 23.434,44.984 25.809,52.391 28.077,53.531 34.891,51.492 34.891,46.847 28.028,42.278 30.228,29.993 
		24.607,29.993 24.607,27.465 21.918,26.002 33.649,26.002 30.667,41.746 42.399,41.746 	"/>
</g>
</svg>
