<?xml version="1.0" encoding="utf-8"?>
<!-- Generator: Adobe Illustrator 12.0.0, SVG Export Plug-In . SVG Version: 6.00 Build 51448)  -->
<!DOCTYPE svg PUBLIC "-//W3C//DTD SVG 1.1//EN" "http://www.w3.org/Graphics/SVG/1.1/DTD/svg11.dtd" [
	<!ENTITY ns_svg "http://www.w3.org/2000/svg">
	<!ENTITY ns_xlink "http://www.w3.org/1999/xlink">
]>
<svg  version="1.1" id="Layer_1" xmlns="&ns_svg;" xmlns:xlink="&ns_xlink;" width="243.704" height="32.352"
	 viewBox="0 0 243.704 32.352" overflow="visible" enable-background="new 0 0 243.704 32.352" xml:space="preserve">
<g>
	<path fill="#FFFFFF" d="M0,1.507h14.005v5.451h-3.546v19.5h3.546v5.451H0v-5.451h3.59v-19.5H0V1.507z"/>
	<path fill="#FFFFFF" d="M24.597,12.586c1.861-2.511,4.269-3.767,7.224-3.767c2.304,0,4.202,0.621,5.694,1.861
		c1.492,1.241,2.238,3.043,2.238,5.407v15.821h-6.47V17.506c0-1.152-0.333-2.105-0.998-2.858s-1.514-1.13-2.548-1.13
		c-1.152,0-2.143,0.436-2.97,1.308s-1.241,1.928-1.241,3.168v13.916h-6.471V9.262h4.831L24.597,12.586z"/>
	<path fill="#FFFFFF" d="M56.993,31.909H49.68L41.748,9.262h6.869l4.919,15.157h0.222l4.919-15.157h6.293L56.993,31.909z"/>
	<path fill="#FFFFFF" d="M87.461,27.167c-0.96,1.685-2.282,2.97-3.966,3.855c-1.685,0.886-3.575,1.329-5.673,1.329h-0.709
		c-2.098,0-3.989-0.443-5.673-1.329s-3.006-2.171-3.966-3.855c-0.96-1.685-1.44-3.663-1.44-5.938v-1.285
		c0-2.275,0.48-4.255,1.44-5.939c0.96-1.684,2.282-2.969,3.966-3.856c1.684-0.886,3.575-1.33,5.673-1.33h0.709
		c2.098,0,3.988,0.443,5.673,1.33c1.684,0.887,3.006,2.172,3.966,3.856s1.44,3.664,1.44,5.939v1.285
		C88.902,23.504,88.421,25.483,87.461,27.167z M80.991,14.669c-0.901-0.945-2.076-1.418-3.523-1.418
		c-1.448,0-2.622,0.473-3.523,1.418s-1.352,2.319-1.352,4.122v3.59c0,1.802,0.45,3.176,1.352,4.121s2.076,1.418,3.523,1.418
		c1.447,0,2.622-0.473,3.523-1.418s1.352-2.319,1.352-4.121v-3.59C82.343,16.989,81.892,15.615,80.991,14.669z"/>
	<path fill="#FFFFFF" d="M92.58,0h6.56v5.097h-6.56V0z M92.624,31.909V9.262h6.471v22.646H92.624z"/>
	<path fill="#FFFFFF" d="M110.529,26.436c0.769,0.99,1.802,1.484,3.103,1.484c1.359,0,2.43-0.421,3.213-1.263
		s1.174-2.091,1.174-3.745h6.116c0,2.098-0.45,3.855-1.352,5.273s-2.091,2.467-3.567,3.146c-1.479,0.68-3.103,1.02-4.875,1.02
		h-0.709c-3.31,0-5.939-0.982-7.889-2.947c-1.951-1.965-2.926-4.689-2.926-8.176v-1.285c0-2.305,0.466-4.292,1.396-5.961
		c0.931-1.669,2.209-2.947,3.834-3.833c1.625-0.886,3.486-1.33,5.584-1.33h0.709c1.743,0,3.36,0.377,4.853,1.13
		s2.688,1.847,3.59,3.279c0.901,1.433,1.352,3.125,1.352,5.074h-6.426c0-1.536-0.34-2.762-1.02-3.678s-1.685-1.374-3.014-1.374
		s-2.378,0.525-3.146,1.574s-1.152,2.371-1.152,3.966v3.944C109.377,24.213,109.761,25.446,110.529,26.436z"/>
	<path fill="#FFFFFF" d="M147.445,28.43c-0.945,1.345-2.194,2.334-3.745,2.97c-1.551,0.635-3.242,0.952-5.074,0.952h-0.709
		c-2.098,0-3.988-0.443-5.673-1.329s-3.007-2.164-3.966-3.833c-0.961-1.67-1.441-3.656-1.441-5.961v-1.285
		c0-2.275,0.488-4.255,1.463-5.939s2.297-2.969,3.967-3.856c1.669-0.886,3.553-1.33,5.65-1.33h0.709c1.832,0,3.531,0.377,5.097,1.13
		s2.821,1.847,3.767,3.279c0.945,1.433,1.418,3.125,1.418,5.074v3.368h-15.511v1.063c0,1.479,0.436,2.711,1.308,3.701
		c0.871,0.99,2.061,1.484,3.567,1.484c1.358,0,2.43-0.377,3.213-1.13s1.175-1.868,1.175-3.347h6.205
		C148.864,25.424,148.391,27.086,147.445,28.43z M134.792,14.625c-0.813,0.916-1.277,2.083-1.396,3.501h8.952
		c0-1.507-0.348-2.696-1.041-3.567c-0.695-0.872-1.811-1.308-3.346-1.308C136.661,13.251,135.604,13.709,134.792,14.625z"/>
	<path fill="#FFFFFF" d="M152.897,31.909V1.507h6.869v24.73h12.498l0.753,5.672H152.897z"/>
	<path fill="#FFFFFF" d="M175.1,0h6.56v5.097h-6.56V0z M175.144,31.909V9.262h6.471v22.646H175.144z"/>
	<path fill="#FFFFFF" d="M206.765,27.167c-0.959,1.685-2.281,2.97-3.966,3.855s-3.575,1.329-5.673,1.329h-0.709
		c-2.098,0-3.988-0.443-5.673-1.329s-3.007-2.171-3.966-3.855c-0.961-1.685-1.441-3.663-1.441-5.938v-1.285
		c0-2.275,0.48-4.255,1.441-5.939c0.959-1.684,2.281-2.969,3.966-3.856c1.685-0.886,3.575-1.33,5.673-1.33h0.709
		c2.098,0,3.988,0.443,5.673,1.33c1.685,0.887,3.007,2.172,3.966,3.856c0.961,1.684,1.441,3.664,1.441,5.939v1.285
		C208.206,23.504,207.726,25.483,206.765,27.167z M200.294,14.669c-0.9-0.945-2.075-1.418-3.522-1.418
		c-1.448,0-2.622,0.473-3.523,1.418s-1.352,2.319-1.352,4.122v3.59c0,1.802,0.45,3.176,1.352,4.121s2.075,1.418,3.523,1.418
		c1.447,0,2.622-0.473,3.522-1.418c0.902-0.945,1.353-2.319,1.353-4.121v-3.59C201.646,16.989,201.196,15.615,200.294,14.669z"/>
	<path fill="#FFFFFF" d="M217.468,12.586c1.861-2.511,4.27-3.767,7.225-3.767c2.304,0,4.201,0.621,5.693,1.861
		c1.492,1.241,2.238,3.043,2.238,5.407v15.821h-6.47V17.506c0-1.152-0.333-2.105-0.997-2.858c-0.666-0.753-1.515-1.13-2.549-1.13
		c-1.152,0-2.143,0.436-2.969,1.308c-0.828,0.872-1.241,1.928-1.241,3.168v13.916h-6.471V9.262h4.831L217.468,12.586z"/>
	<path fill="#FFFFFF" d="M237.233,25.395h6.471v6.514h-6.471V25.395z"/>
</g>
</svg>
