<?xml version="1.0" encoding="utf-8"?>
<!-- Generator: Adobe Illustrator 12.0.0, SVG Export Plug-In . SVG Version: 6.00 Build 51448)  -->
<!DOCTYPE svg PUBLIC "-//W3C//DTD SVG 1.1//EN" "http://www.w3.org/Graphics/SVG/1.1/DTD/svg11.dtd" [
	<!ENTITY ns_svg "http://www.w3.org/2000/svg">
	<!ENTITY ns_xlink "http://www.w3.org/1999/xlink">
]>
<svg  version="1.1" id="Layer_2_copy" xmlns="&ns_svg;" xmlns:xlink="&ns_xlink;" width="419.441" height="469.425"
	 viewBox="0 0 419.441 469.425" overflow="visible" enable-background="new 0 0 419.441 469.425" xml:space="preserve">
<g id="Layer_2">
</g>
<g>
	<g>
		<path d="M388.947,74.159l-18.02,49.658L331.281,74.4l49.505-6.122L286.019,0H133.422L38.405,68.459L86.446,74.4L46.8,123.816
			L29.135,75.138L0,96.129l20,265.015l190.108,108.281l189.333-108.281l20-265.015L388.947,74.159z M257.141,363.776l-47.304,8.529
			l-47.034-8.529l-9.007-26.614l56.041-17.684l56.311,17.684L257.141,363.776z M336.268,202.853l-44.955,60.189l-14.754,46.04
			l-14.059,7.03l-42.251-12.591v-29l42.561-28.313l-13.664-76.131h34.839v-15.704l16.749-9.062h-72.78l18.458,97.678h-72.782
			l18.498-97.679h-72.776l16.678,9.08v15.684H170.9l-13.646,76.217l42.576,28.34v28.816l-42.272,12.656l-14.071-7.079
			l-14.736-45.942l-44.878-59.989v-58.431l55.492-65.112l141.047-0.106l55.856,65.408V202.853z"/>
	</g>
</g>
</svg>
