<?xml version="1.0" encoding="utf-8"?>
<!-- Generator: Adobe Illustrator 12.0.0, SVG Export Plug-In . SVG Version: 6.00 Build 51448)  -->
<!DOCTYPE svg PUBLIC "-//W3C//DTD SVG 1.1//EN" "http://www.w3.org/Graphics/SVG/1.1/DTD/svg11.dtd" [
	<!ENTITY ns_svg "http://www.w3.org/2000/svg">
	<!ENTITY ns_xlink "http://www.w3.org/1999/xlink">
]>
<svg  version="1.1" id="Layer_2_copy" xmlns="&ns_svg;" xmlns:xlink="&ns_xlink;" width="452.7" height="503.848"
	 viewBox="0 0 452.7 503.848" overflow="visible" enable-background="new 0 0 452.7 503.848" xml:space="preserve">
<g>
	<g>
		<g>
			<path fill="#FFFFFF" d="M307.813,0H144.888L0,104.391l21.315,282.444l205.438,117.014l204.632-117.031L452.7,104.391L307.813,0z
				 M416.07,377.144L226.737,485.425L36.629,377.144l-20-265.015L150.052,16h152.597l133.422,96.129L416.07,377.144z"/>
		</g>
	</g>
	<polygon fill="#FFFFFF" points="226.467,388.305 273.771,379.776 282.777,353.162 226.467,335.478 170.426,353.162 
		179.433,379.776 	"/>
	<polygon fill="#FFFFFF" points="387.557,139.816 408.194,82.945 347.91,90.4 	"/>
	<polygon fill="#FFFFFF" points="63.429,139.816 42.792,82.945 103.076,90.4 	"/>
	<polygon fill="#FFFFFF" points="244.583,161.312 317.363,161.312 300.614,170.374 300.614,186.077 265.775,186.077 
		279.439,262.208 236.879,290.522 236.879,319.522 279.13,332.113 293.188,325.083 307.942,279.042 352.897,218.853 
		352.897,160.853 297.041,95.445 155.994,95.551 100.502,160.663 100.502,219.094 145.38,279.083 160.116,325.025 174.188,332.104 
		216.46,319.448 216.46,290.631 173.884,262.291 187.53,186.074 152.658,186.074 152.658,170.39 135.98,161.31 208.757,161.31 
		190.259,258.989 263.041,258.989 	"/>
</g>
</svg>
