<?xml version="1.0" encoding="utf-8"?>
<!-- Generator: Adobe Illustrator 12.0.0, SVG Export Plug-In . SVG Version: 6.00 Build 51448)  -->
<!DOCTYPE svg PUBLIC "-//W3C//DTD SVG 1.1//EN" "http://www.w3.org/Graphics/SVG/1.1/DTD/svg11.dtd" [
	<!ENTITY ns_svg "http://www.w3.org/2000/svg">
	<!ENTITY ns_xlink "http://www.w3.org/1999/xlink">
]>
<svg  version="1.1" id="Layer_1" xmlns="&ns_svg;" xmlns:xlink="&ns_xlink;" width="243.704" height="206.501"
	 viewBox="0 0 243.704 206.501" overflow="visible" enable-background="new 0 0 243.704 206.501" xml:space="preserve">
<g>
	<path fill="#FFFFFF" d="M0,175.656h14.005v5.451h-3.546v19.5h3.546v5.451H0v-5.451h3.59v-19.5H0V175.656z"/>
	<path fill="#FFFFFF" d="M24.597,186.735c1.861-2.511,4.269-3.768,7.224-3.768c2.304,0,4.202,0.621,5.694,1.861
		c1.492,1.241,2.238,3.043,2.238,5.407v15.821h-6.47v-14.402c0-1.152-0.333-2.105-0.998-2.858s-1.514-1.13-2.548-1.13
		c-1.152,0-2.143,0.437-2.97,1.309s-1.241,1.928-1.241,3.168v13.916h-6.471v-22.648h4.831L24.597,186.735z"/>
	<path fill="#FFFFFF" d="M56.993,206.059H49.68l-7.932-22.647h6.869l4.919,15.157h0.222l4.919-15.157h6.293L56.993,206.059z"/>
	<path fill="#FFFFFF" d="M87.461,201.316c-0.96,1.685-2.282,2.97-3.966,3.854c-1.685,0.887-3.575,1.329-5.673,1.329h-0.709
		c-2.098,0-3.989-0.442-5.673-1.329c-1.684-0.886-3.006-2.171-3.966-3.854c-0.96-1.686-1.44-3.663-1.44-5.938v-1.285
		c0-2.274,0.48-4.255,1.44-5.938c0.96-1.685,2.282-2.969,3.966-3.856c1.684-0.886,3.575-1.33,5.673-1.33h0.709
		c2.098,0,3.988,0.443,5.673,1.33c1.684,0.888,3.006,2.172,3.966,3.856c0.96,1.684,1.44,3.664,1.44,5.938v1.285
		C88.902,197.653,88.421,199.632,87.461,201.316z M80.991,188.818c-0.901-0.945-2.076-1.418-3.523-1.418
		c-1.448,0-2.622,0.473-3.523,1.418c-0.901,0.945-1.352,2.318-1.352,4.122v3.59c0,1.802,0.45,3.176,1.352,4.121
		c0.902,0.945,2.076,1.418,3.523,1.418c1.447,0,2.622-0.473,3.523-1.418c0.901-0.945,1.352-2.319,1.352-4.121v-3.59
		C82.343,191.139,81.892,189.765,80.991,188.818z"/>
	<path fill="#FFFFFF" d="M92.58,174.149h6.56v5.097h-6.56V174.149z M92.624,206.059v-22.647h6.471v22.646L92.624,206.059
		L92.624,206.059z"/>
	<path fill="#FFFFFF" d="M110.529,200.585c0.769,0.99,1.802,1.484,3.103,1.484c1.359,0,2.43-0.421,3.213-1.263
		c0.783-0.843,1.174-2.092,1.174-3.745h6.116c0,2.098-0.45,3.854-1.352,5.272c-0.903,1.418-2.092,2.467-3.568,3.146
		c-1.479,0.68-3.103,1.02-4.875,1.02h-0.709c-3.31,0-5.939-0.981-7.889-2.947c-1.951-1.965-2.926-4.688-2.926-8.176v-1.285
		c0-2.305,0.466-4.292,1.396-5.961c0.931-1.669,2.209-2.946,3.834-3.833c1.625-0.886,3.486-1.33,5.584-1.33h0.709
		c1.743,0,3.36,0.377,4.853,1.131c1.493,0.753,2.688,1.847,3.591,3.278c0.9,1.434,1.352,3.125,1.352,5.074h-6.426
		c0-1.536-0.34-2.762-1.02-3.678s-1.685-1.374-3.014-1.374c-1.329,0-2.378,0.524-3.146,1.574c-0.768,1.049-1.152,2.37-1.152,3.966
		v3.943C109.377,198.362,109.761,199.595,110.529,200.585z"/>
	<path fill="#FFFFFF" d="M147.445,202.579c-0.944,1.345-2.194,2.334-3.745,2.97s-3.242,0.952-5.074,0.952h-0.709
		c-2.098,0-3.987-0.442-5.672-1.329c-1.686-0.886-3.008-2.164-3.967-3.833c-0.961-1.67-1.441-3.655-1.441-5.961v-1.285
		c0-2.274,0.488-4.255,1.463-5.938c0.976-1.685,2.298-2.969,3.968-3.856c1.669-0.886,3.553-1.33,5.649-1.33h0.709
		c1.832,0,3.531,0.377,5.098,1.131c1.566,0.753,2.82,1.847,3.768,3.278c0.944,1.434,1.418,3.125,1.418,5.074v3.368h-15.512v1.063
		c0,1.479,0.436,2.711,1.309,3.701c0.871,0.99,2.061,1.484,3.566,1.484c1.357,0,2.43-0.377,3.213-1.13s1.176-1.868,1.176-3.348
		h6.205C148.864,199.573,148.391,201.235,147.445,202.579z M134.792,188.774c-0.813,0.916-1.276,2.083-1.396,3.501h8.952
		c0-1.507-0.348-2.696-1.041-3.567c-0.695-0.872-1.811-1.308-3.346-1.308C136.661,187.4,135.604,187.858,134.792,188.774z"/>
	<path fill="#FFFFFF" d="M152.897,206.059v-30.402h6.869v24.729h12.498l0.753,5.673H152.897z"/>
	<path fill="#FFFFFF" d="M175.1,174.149h6.561v5.097H175.1V174.149z M175.144,206.059v-22.647h6.472v22.646L175.144,206.059
		L175.144,206.059z"/>
	<path fill="#FFFFFF" d="M206.765,201.316c-0.959,1.685-2.281,2.97-3.966,3.854c-1.686,0.886-3.575,1.329-5.674,1.329h-0.709
		c-2.098,0-3.987-0.442-5.672-1.329c-1.686-0.886-3.008-2.171-3.967-3.854c-0.961-1.686-1.441-3.663-1.441-5.938v-1.285
		c0-2.274,0.48-4.255,1.441-5.938c0.959-1.685,2.281-2.969,3.967-3.856c1.685-0.886,3.574-1.33,5.672-1.33h0.709
		c2.099,0,3.988,0.443,5.674,1.33c1.685,0.888,3.007,2.172,3.966,3.856c0.961,1.684,1.44,3.664,1.44,5.938v1.285
		C208.206,197.653,207.726,199.632,206.765,201.316z M200.293,188.818c-0.899-0.945-2.074-1.418-3.521-1.418
		s-2.622,0.473-3.523,1.418c-0.9,0.945-1.352,2.318-1.352,4.122v3.59c0,1.802,0.45,3.176,1.352,4.121
		c0.902,0.945,2.076,1.418,3.523,1.418s2.622-0.473,3.521-1.418c0.902-0.945,1.354-2.319,1.354-4.121v-3.59
		C201.646,191.139,201.196,189.765,200.293,188.818z"/>
	<path fill="#FFFFFF" d="M217.467,186.735c1.861-2.511,4.271-3.768,7.226-3.768c2.304,0,4.201,0.621,5.693,1.861
		c1.491,1.241,2.237,3.043,2.237,5.407v15.821h-6.47v-14.402c0-1.152-0.333-2.105-0.997-2.858c-0.666-0.753-1.515-1.13-2.549-1.13
		c-1.152,0-2.143,0.437-2.969,1.309c-0.828,0.872-1.241,1.928-1.241,3.168v13.916h-6.471v-22.648h4.831L217.467,186.735z"/>
	<path fill="#FFFFFF" d="M237.233,199.544h6.471v6.515h-6.471V199.544z"/>
</g>
<g>
	<g>
		<g>
			<path fill="#FFFFFF" d="M139.76,0H90.399L46.502,31.627l6.458,85.572l62.242,35.452l61.999-35.457l6.457-85.567L139.76,0z
				 M172.559,114.264l-57.363,32.806l-57.597-32.806L51.54,33.972L91.963,4.848h46.231l40.423,29.124L172.559,114.264z"/>
		</g>
	</g>
	<polygon fill="#FFFFFF" points="115.115,117.645 129.447,115.062 132.175,106.997 115.115,101.64 98.136,106.997 100.865,115.062 	
		"/>
	<polygon fill="#FFFFFF" points="163.92,42.36 170.172,25.13 151.909,27.389 	"/>
	<polygon fill="#FFFFFF" points="65.719,42.36 59.466,25.13 77.731,27.389 	"/>
	<polygon fill="#FFFFFF" points="120.603,48.873 142.654,48.873 137.579,51.618 137.579,56.376 127.024,56.376 131.163,79.441 
		118.27,88.02 118.27,96.806 131.07,100.621 135.329,98.491 139.8,84.541 153.419,66.306 153.419,48.734 136.498,28.917 
		93.764,28.949 76.952,48.676 76.952,66.379 90.547,84.554 95.012,98.473 99.276,100.617 112.083,96.783 112.083,88.053 
		99.184,79.467 103.318,56.375 92.753,56.375 92.753,51.623 87.7,48.873 109.75,48.873 104.145,78.466 126.196,78.466 	"/>
</g>
</svg>
